<?xml version="1.0" standalone="no"?>
<!DOCTYPE svg PUBLIC "-//W3C//DTD SVG 20010904//EN"
 "http://www.w3.org/TR/2001/REC-SVG-20010904/DTD/svg10.dtd">
<svg version="1.0" xmlns="http://www.w3.org/2000/svg"
 width="512.000000pt" height="512.000000pt" viewBox="0 0 512.000000 512.000000"
 preserveAspectRatio="xMidYMid meet">
<metadata>
Created by potrace 1.14, written by Peter Selinger 2001-2017
</metadata>
<g transform="translate(0.000000,512.000000) scale(0.100000,-0.100000)"
fill="#000000" stroke="none">
<path d="M0 2560 l0 -2560 2560 0 2560 0 0 2560 0 2560 -2560 0 -2560 0 0
-2560z m3675 1228 c211 -32 356 -130 430 -291 48 -106 66 -187 72 -335 l6
-132 -219 2 -219 3 -6 105 c-9 152 -27 206 -91 267 -50 48 -101 66 -188 66
-203 0 -298 -127 -330 -442 -13 -128 -13 -743 0 -907 28 -359 108 -478 320
-478 98 1 155 21 208 73 65 65 88 138 98 312 l7 119 220 0 220 0 -6 -142 c-15
-372 -154 -577 -448 -657 -99 -28 -275 -41 -401 -31 -228 19 -353 72 -471 199
-160 173 -207 409 -207 1036 0 522 30 734 131 927 42 81 155 193 236 236 149
79 400 106 638 70z m-1730 -52 c157 -37 284 -124 338 -232 59 -119 83 -273 67
-433 -24 -229 -118 -360 -305 -425 l-68 -24 59 -17 c175 -50 286 -158 329
-321 40 -151 36 -396 -9 -538 -58 -183 -185 -295 -391 -346 -130 -31 -276 -40
-672 -40 l-373 0 0 1201 0 1201 478 -5 c397 -4 489 -7 547 -21z"/>
<path d="M1370 3099 l0 -331 173 4 c168 3 173 4 232 33 108 54 152 155 143
330 -6 102 -27 163 -76 211 -65 65 -141 84 -338 84 l-134 0 0 -331z"/>
<path d="M1370 2069 l0 -382 168 6 c182 6 214 12 284 56 90 57 128 153 128
321 0 289 -113 380 -476 380 l-104 0 0 -381z"/>
</g>
</svg>
